<mxfile host="app.diagrams.net" modified="2021-01-19T06:24:25.937Z" agent="5.0 (Windows NT 10.0; Win64; x64) AppleWebKit/537.36 (KHTML, like Gecko) Chrome/87.0.4280.141 Safari/537.36" etag="n3vzLawdrgLmLo2lfgQq" version="14.2.2" type="github">
  <diagram name="Page-1" id="74e2e168-ea6b-b213-b513-2b3c1d86103e">
    <mxGraphModel dx="1038" dy="548" grid="1" gridSize="10" guides="1" tooltips="1" connect="1" arrows="1" fold="1" page="1" pageScale="1" pageWidth="1100" pageHeight="850" background="#ffffff" math="0" shadow="0">
      <root>
        <mxCell id="0" />
        <mxCell id="1" parent="0" />
        <mxCell id="4cxhfHIo7UR-cVewsCCE-4" value="" style="rounded=1;whiteSpace=wrap;html=1;rotation=0;glass=0;perimeterSpacing=0;strokeOpacity=100;arcSize=5;" parent="1" vertex="1">
          <mxGeometry x="80" y="230" width="940" height="530" as="geometry" />
        </mxCell>
        <mxCell id="77e6c97f196da883-1" value="&lt;font style=&quot;font-size: 18px&quot;&gt;省公司直属单位授权采购服务类需求申报流程图&lt;/font&gt;" style="swimlane;html=1;childLayout=stackLayout;startSize=30;rounded=0;shadow=0;labelBackgroundColor=none;strokeWidth=1;fontFamily=Verdana;fontSize=18;align=center;" parent="1" vertex="1">
          <mxGeometry x="70" y="40" width="960" height="750" as="geometry" />
        </mxCell>
        <mxCell id="77e6c97f196da883-2" value="需求部门" style="swimlane;html=1;startSize=30;fontSize=15;" parent="77e6c97f196da883-1" vertex="1">
          <mxGeometry y="30" width="480" height="720" as="geometry" />
        </mxCell>
        <mxCell id="H4fo828ms0VRvZTViUcg-3" style="edgeStyle=orthogonalEdgeStyle;rounded=0;orthogonalLoop=1;jettySize=auto;html=1;exitX=0.5;exitY=1;exitDx=0;exitDy=0;entryX=0.5;entryY=0;entryDx=0;entryDy=0;fontSize=18;" parent="77e6c97f196da883-2" source="77e6c97f196da883-8" target="77e6c97f196da883-10" edge="1">
          <mxGeometry relative="1" as="geometry" />
        </mxCell>
        <mxCell id="77e6c97f196da883-8" value="ECP2.0单体项目挂接技术规范书并生成技术规范书ID" style="rounded=1;whiteSpace=wrap;html=1;shadow=0;labelBackgroundColor=none;strokeWidth=1;fontFamily=Verdana;fontSize=8;align=center;" parent="77e6c97f196da883-2" vertex="1">
          <mxGeometry x="20" y="65" width="120" height="60" as="geometry" />
        </mxCell>
        <mxCell id="H4fo828ms0VRvZTViUcg-5" style="edgeStyle=orthogonalEdgeStyle;rounded=0;orthogonalLoop=1;jettySize=auto;html=1;entryX=0.5;entryY=0;entryDx=0;entryDy=0;fontSize=18;" parent="77e6c97f196da883-2" source="77e6c97f196da883-10" target="H4fo828ms0VRvZTViUcg-4" edge="1">
          <mxGeometry relative="1" as="geometry" />
        </mxCell>
        <mxCell id="77e6c97f196da883-10" value="创建采购申请&lt;br&gt;并生成采购申请号" style="rounded=1;whiteSpace=wrap;html=1;shadow=0;labelBackgroundColor=none;strokeWidth=1;fontFamily=Verdana;fontSize=8;align=center;" parent="77e6c97f196da883-2" vertex="1">
          <mxGeometry x="20" y="190" width="120" height="60" as="geometry" />
        </mxCell>
        <mxCell id="H4fo828ms0VRvZTViUcg-4" value="维护技术规范书ID" style="rounded=1;whiteSpace=wrap;html=1;shadow=0;labelBackgroundColor=none;strokeWidth=1;fontFamily=Verdana;fontSize=8;align=center;" parent="77e6c97f196da883-2" vertex="1">
          <mxGeometry x="20" y="320" width="120" height="60" as="geometry" />
        </mxCell>
        <mxCell id="4cxhfHIo7UR-cVewsCCE-5" value="ERP" style="text;html=1;strokeColor=none;fillColor=none;align=center;verticalAlign=middle;whiteSpace=wrap;rounded=0;" parent="77e6c97f196da883-2" vertex="1">
          <mxGeometry x="20" y="160" width="40" height="20" as="geometry" />
        </mxCell>
        <mxCell id="77e6c97f196da883-7" value="省物资公司" style="swimlane;html=1;startSize=30;fontSize=15;" parent="77e6c97f196da883-1" vertex="1">
          <mxGeometry x="480" y="30" width="480" height="720" as="geometry" />
        </mxCell>
        <mxCell id="H4fo828ms0VRvZTViUcg-12" value="省物资公司审核" style="whiteSpace=wrap;html=1;rounded=1;shadow=0;fontFamily=Verdana;fontSize=8;strokeWidth=1;" parent="77e6c97f196da883-7" vertex="1">
          <mxGeometry x="180" y="220" width="120" height="60" as="geometry" />
        </mxCell>
        <mxCell id="H4fo828ms0VRvZTViUcg-9" value="" style="edgeStyle=orthogonalEdgeStyle;rounded=0;orthogonalLoop=1;jettySize=auto;html=1;fontSize=18;entryX=0;entryY=0.5;entryDx=0;entryDy=0;" parent="1" source="H4fo828ms0VRvZTViUcg-6" target="H4fo828ms0VRvZTViUcg-12" edge="1">
          <mxGeometry relative="1" as="geometry">
            <Array as="points">
              <mxPoint x="240" y="560" />
              <mxPoint x="240" y="320" />
            </Array>
            <mxPoint x="450" y="320" as="targetPoint" />
          </mxGeometry>
        </mxCell>
        <mxCell id="H4fo828ms0VRvZTViUcg-6" value="提报需求计划" style="whiteSpace=wrap;html=1;rounded=1;shadow=0;fontFamily=Verdana;fontSize=8;strokeWidth=1;" parent="1" vertex="1">
          <mxGeometry x="90" y="530" width="120" height="60" as="geometry" />
        </mxCell>
        <mxCell id="H4fo828ms0VRvZTViUcg-7" value="" style="edgeStyle=orthogonalEdgeStyle;rounded=0;orthogonalLoop=1;jettySize=auto;html=1;fontSize=18;" parent="1" source="H4fo828ms0VRvZTViUcg-4" target="H4fo828ms0VRvZTViUcg-6" edge="1">
          <mxGeometry relative="1" as="geometry" />
        </mxCell>
        <mxCell id="H4fo828ms0VRvZTViUcg-20" style="edgeStyle=orthogonalEdgeStyle;rounded=0;orthogonalLoop=1;jettySize=auto;html=1;fontSize=14;entryX=1;entryY=0.5;entryDx=0;entryDy=0;exitX=0.5;exitY=1;exitDx=0;exitDy=0;" parent="1" source="H4fo828ms0VRvZTViUcg-12" target="H4fo828ms0VRvZTViUcg-21" edge="1">
          <mxGeometry relative="1" as="geometry">
            <mxPoint x="430" y="660" as="targetPoint" />
            <Array as="points">
              <mxPoint x="790" y="700" />
            </Array>
            <mxPoint x="510" y="350" as="sourcePoint" />
          </mxGeometry>
        </mxCell>
        <mxCell id="H4fo828ms0VRvZTViUcg-24" value="退回修改" style="edgeLabel;html=1;align=center;verticalAlign=middle;resizable=0;points=[];fontSize=14;" parent="H4fo828ms0VRvZTViUcg-20" vertex="1" connectable="0">
          <mxGeometry x="-0.3462" y="-2" relative="1" as="geometry">
            <mxPoint x="2" y="-124" as="offset" />
          </mxGeometry>
        </mxCell>
        <mxCell id="H4fo828ms0VRvZTViUcg-25" style="edgeStyle=orthogonalEdgeStyle;rounded=0;orthogonalLoop=1;jettySize=auto;html=1;entryX=0.5;entryY=1;entryDx=0;entryDy=0;fontSize=14;" parent="1" source="H4fo828ms0VRvZTViUcg-21" target="H4fo828ms0VRvZTViUcg-6" edge="1">
          <mxGeometry relative="1" as="geometry" />
        </mxCell>
        <mxCell id="H4fo828ms0VRvZTViUcg-21" value="修改相关内容" style="whiteSpace=wrap;html=1;rounded=1;shadow=0;fontFamily=Verdana;fontSize=8;strokeWidth=1;" parent="1" vertex="1">
          <mxGeometry x="90" y="670" width="120" height="60" as="geometry" />
        </mxCell>
      </root>
    </mxGraphModel>
  </diagram>
</mxfile>
